<svg height="480pt" viewBox="-80 0 480 480.02301" width="480pt" xmlns="http://www.w3.org/2000/svg"><path d="m255.53125 201.863281c35.699219 28.867188 56.429688 72.328125 56.402344 118.238281.070312 30.574219-9.195313 60.4375-26.5625 85.601563-35.035156 51.429687-97.917969 76.261719-158.636719 62.640625-8.5-1.851562-16.804687-4.503906-24.800781-7.921875-3.679688-1.4375-7.199219-3.117187-10.722656-4.878906-51.035157-25.863281-83.199219-78.222657-83.199219-135.441407.011719-7.710937.601562-15.414062 1.761719-23.039062 3.617187-23.664062 12.769531-46.140625 26.71875-65.597656 17.257812-24.015625 41.097656-42.519532 68.640624-53.28125 2.480469-.960938 5.121094-1.839844 7.679688-2.71875 15.222656-4.925782 31.121094-7.4375 47.121094-7.441406 34.808594-.054688 68.574218 11.898437 95.597656 33.839843zm0 0" fill="#168fba"/><path d="m229.085938 126.269531c19.136718-33.132812 11.71875-75.222656-17.59375-99.820312-29.308594-24.597657-72.050782-24.597657-101.359376 0-29.3125 24.597656-36.726562 66.6875-17.59375 99.820312l.082032.121094c1.835937 3.160156 3.886718 6.183594 6.144531 9.058594l49.808594 73.496093h.0625c2.546875 4.382813 7.230469 7.078126 12.300781 7.078126 5.066406 0 9.753906-2.695313 12.300781-7.078126h.0625l49.855469-73.832031c2.117188-2.730469 4.050781-5.597656 5.792969-8.578125zm0 0" fill="#ad2943"/><g fill="#2d8e43"><path d="m307.292969 282.742188c3.089843 12.214843 4.648437 24.761718 4.640625 37.359374.070312 30.574219-9.195313 60.4375-26.5625 85.601563l-21.679688-21.679687 8-32-8-40-24-24h-32l-8-48 32-16 23.839844-22.160157c25.535156 20.664063 43.695312 49.039063 51.761719 80.878907zm0 0"/><path d="m167.691406 328.023438v40l-24 40v24l-16 32-.957031 4.320312c-8.5-1.851562-16.804687-4.503906-24.800781-7.921875l1.757812-4.398437-8-32-16-24v-48l-15.359375-20.480469 15.359375-11.519531h56zm0 0"/><path d="m105.132812 178.183594 14.558594 21.839844-8 24v32l-32 32v32l-15.359375 11.519531-8.640625-11.519531-24-16v-16l-14.078125-21.121094c4.683594-12.601563 11.03125-24.523438 18.878907-35.4375 17.257812-24.015625 41.097656-42.519532 68.640624-53.28125zm0 0"/></g><path d="m200.011719 88.023438c0 22.089843-17.90625 40-40 40-22.089844 0-40-17.910157-40-40 0-22.089844 17.910156-40 40-40 22.09375 0 40 17.910156 40 40zm0 0" fill="#ee3446"/><path d="m.0117188 320.070312c-.1367188 36.558594 12.3828122 72.039063 35.4335932 100.417969 14.203126 17.554688 31.949219 31.914063 52.078126 42.144531 45.609374 23.222657 99.582031 23.183594 145.160156-.097656 57.605468-29.171875 91.964844-90.171875 87.0625-154.554687-4.902344-64.382813-48.105469-119.476563-109.460938-139.589844l19.199219-28.382813c2.21875-2.855468 4.246094-5.847656 6.074219-8.96875l.175781-.253906c.230469-.34375.433594-.703125.613281-1.074218 20.777344-36.597657 12.320313-82.828126-20.066406-109.699219-32.386719-26.875-79.382812-26.65625-111.519531.515625s-40.167969 73.476562-19.054688 109.878906c1.914063 3.320312 4.050781 6.503906 6.402344 9.527344l18.832031 27.792968-.5625.152344c-57.40625 18.757813-99.363281 68.242188-108.476562 127.945313-1.25 8.023437-1.8789065 16.128906-1.8906252 24.246093zm299.5117192-35.382812c9.269531 36.75 3.71875 75.671875-15.453126 108.367188l-11.511718-11.511719 6.902344-27.597657c.28125-1.152343.308593-2.351562.078124-3.515624l-8-40c-.308593-1.546876-1.070312-2.96875-2.191406-4.085938l-24-24c-1.503906-1.492188-3.535156-2.328125-5.65625-2.320312h-25.214844l-5.917968-35.488282 26.71875-13.351562c.675781-.34375 1.304687-.78125 1.863281-1.296875l18.542969-17.222657c21.445312 19.121094 36.707031 44.195313 43.839844 72.023438zm-194.503907-154.167969c-21.976562-28.058593-19.6875-68.074219 5.347657-93.441406 25.035156-25.371094 65.015624-28.1875 93.363281-6.582031 28.34375 21.601562 36.226562 60.902344 18.402343 91.765625l-.097656.167969-.039062.074218c-1.664063 2.824219-3.503906 5.542969-5.511719 8.136719l-33.679687 49.871094-15.679688 23.199219c-.300781.351562-.566406.730468-.800781 1.128906-1.148438 1.882812-3.210938 3.011718-5.414063 2.96875-1.066406.003906-2.121094-.253906-3.066406-.746094-.976562-.5-1.789062-1.269531-2.34375-2.214844-.234375-.402344-.5-.785156-.800781-1.144531l-24.285157-35.800781zm12.328125 131.199219c1.511719-1.507812 2.355469-3.558594 2.34375-5.695312v-30.703126l7.59375-22.769531c.78125-2.34375.433594-4.914062-.9375-6.96875l-8.734375-13.160156c.910157-.277344 1.824219-.574219 2.75-.839844l.929688 1.371094 20.65625 30.488281c.09375.132813.191406.261719.296875.390625l.101562.136719c3.066406 4.636719 7.738282 7.972656 13.121094 9.367188 3.589844.925781 7.355469.925781 10.945312 0 .078126 0 .144532-.074219.222657-.089844 5.289062-1.421875 9.875-4.722656 12.902343-9.285156.136719-.167969.265626-.351563.394532-.539063l4.984375-7.382813 16.199219-24c15.015624 4.496094 29.183593 11.4375 41.933593 20.550782l-15.917969 14.777344-30.976562 15.488281c-3.144531 1.570312-4.894531 5.011719-4.3125 8.480469l8 48c.640625 3.84375 3.953125 6.667968 7.847656 6.6875h28.6875l19.945313 19.945312 7.199219 35.863281-7.566407 30.246094c-.683593 2.726563.117188 5.613281 2.105469 7.601563l16.957031 16.953124c-13.15625 17.472657-30.117187 31.71875-49.597656 41.664063-20.25 10.40625-42.699219 15.800781-65.464844 15.726563-7.5-.015626-14.988281-.605469-22.398437-1.769532l13.324218-26.65625c.542969-1.113281.820313-2.335937.808594-3.574218v-21.785157l22.867188-38.09375c.742187-1.246093 1.132812-2.671875 1.132812-4.121093v-40c0-3.667969-2.496094-6.867188-6.054687-7.761719l-32-8c-.636719-.160157-1.289063-.238281-1.945313-.238281h-48v-20.6875zm-74.335937-25.597656c15.117187-20.953125 35.554687-37.488282 59.199219-47.890625l8.671874 13.007812-6.757812 20.289063c-.277344.804687-.421875 1.644531-.433594 2.496094v28.6875l-29.65625 29.65625c-1.5 1.5-2.34375 3.535156-2.34375 5.65625v32c0 4.417968 3.582032 8 8 8h55.015625l24.984375 6.246093v31.539063l-22.878906 38.09375c-.738281 1.25-1.125 2.671875-1.121094 4.121094v22.113281l-14.3125 28.621093c-4.183594-1.167968-8.308594-2.503906-12.382812-4.0625l2.464844-.617187-8-32c-.226563-.886719-.601563-1.734375-1.113282-2.496094l-14.65625-21.957031v-45.601562c0-1.730469-.558594-3.414063-1.597656-4.800782l-24-32c-.542969-.722656-1.207031-1.351562-1.960938-1.855468l-20.441406-13.601563v-11.742187c0-1.582032-.464844-3.125-1.34375-4.441407l-11.789062-17.695312c4.277344-10.554688 9.800781-20.558594 16.453125-29.800781zm-25.304688 62.160156c.664063-4.363281 1.601563-8.640625 2.609375-12.875l3.375 5.074219v13.542969c.003906 2.675781 1.339844 5.171874 3.570313 6.65625l22.855469 15.238281 21.597656 28.800781v45.304688c.003906 1.578124.472656 3.125 1.347656 4.441406l15.199219 22.847656 5.054687 20.222656c-17.523437-9.136718-32.988281-21.765625-45.441406-37.113281-25.417969-31.464844-36.375-72.199219-30.175781-112.175781zm0 0"/><path d="m208.011719 88.023438c0-26.507813-21.488281-48-48-48-26.507813 0-48 21.492187-48 48 0 26.507812 21.492187 48 48 48 26.5-.027344 47.972656-21.5 48-48zm-80 0c0-17.671876 14.328125-32 32-32 17.675781 0 32 14.328124 32 32 0 17.671874-14.324219 32-32 32-17.671875 0-32-14.328126-32-32zm0 0"/></svg>