<svg width="485" height="454" viewBox="0 0 485 454" fill="none" xmlns="http://www.w3.org/2000/svg">
<path d="M20 431V156L248 431V156" stroke="white" stroke-width="40" stroke-linecap="round" stroke-linejoin="round"/>
<g clip-path="url(#clip0)">
<path d="M387.504 214.903C387.504 214.903 387.504 246.315 351.37 269.767C341.32 276.28 328.977 266.277 331.878 254.033C337.232 231.46 343.496 200.02 343.496 176.497C343.496 135.409 300.57 193.465 300.57 193.465L308.615 255.097C308.615 255.097 303.432 275.287 289.36 293.121C282.503 301.818 269.46 298.682 266.572 287.715C261.785 269.611 259.16 240.555 274.379 205.965C300.32 147 238.047 199.708 238.047 199.708C238.047 199.708 255.085 248.585 244.852 301.449C242.834 311.877 231.031 316.119 223.487 309.21C206.818 293.944 183.581 263.042 185.731 210.42C185.731 210.42 184.293 254.87 174.93 262.234C174.93 262.234 139.23 242.584 136.738 230.07C134.245 217.556 136.738 255.977 136.738 255.977C136.738 255.977 270.423 295.277 200.672 443.568H287.026C287.026 443.568 233.563 382.135 300.57 326.207C367.577 270.278 379.196 282.778 394.968 231.858C410.754 180.952 387.504 214.903 387.504 214.903Z" fill="#9A795F"/>
<path d="M152.774 243.194C157.838 242.371 163.008 242.2 168.112 242.711C166.622 236.043 176.71 230.978 180.495 236.483C185.124 243.208 179.084 256.544 186.43 259.297C190.716 260.9 194.553 256.303 198.272 253.522C203.376 249.72 210.379 249.096 215.997 251.948C216.181 247.89 216.366 243.832 216.551 239.774C220.059 239.93 223.58 240.086 227.088 240.243C227.167 236.653 227.233 233.078 227.312 229.488C244.72 231.73 256.8 255.835 274.023 252.288C276.305 251.82 278.626 250.841 280.894 251.394C282.991 251.891 284.613 253.593 286.38 254.884C294.57 260.9 305.753 258.417 314.839 254.118C323.913 249.819 332.722 243.832 342.639 243.321C350.222 242.924 359.546 245.095 364.03 238.512C365.309 236.625 365.968 234.199 367.657 232.737C372.562 228.467 378.682 235.646 383.205 240.384C391.17 248.727 403.198 250.401 414.302 250.671C420.065 250.812 426.052 250.642 431.195 247.847C436.339 245.052 440.335 238.909 439.187 232.851C437.961 226.438 431.631 219.755 435.442 214.648C442.036 217.925 450.516 216.137 455.461 210.406C450.252 198.871 459.008 183.066 470.917 182.498C474.069 182.356 477.313 183.08 480.346 182.129C483.38 181.179 486.043 177.49 484.593 174.482C482.733 170.637 476.06 171.19 475.322 166.934C474.781 163.813 478.091 161.713 479.647 159.017C482.522 154.023 478.447 147.085 473.199 145.525C467.95 143.964 462.385 146.12 457.439 148.589C456.358 137.182 448.076 126.981 437.71 124.3C444.199 121.207 447.06 111.559 443.434 105.004C439.807 98.4494 430.562 96.534 424.944 101.173C427.186 94.7322 425.736 86.9856 421.37 81.9631C417.005 76.9406 409.923 74.8834 403.791 76.8413C401.839 67.0801 399.888 57.3047 397.936 47.5434C397.21 43.8972 396.406 40.0806 394.164 37.2289C388.717 30.3052 377.837 32.2773 371.296 26.5313C369.608 25.0415 368.052 22.9701 365.863 22.8424C362.21 22.6296 360.126 27.9075 356.513 28.4892C354.482 28.8155 352.57 27.567 350.657 26.7583C343.853 23.8356 335.294 26.8718 331.43 33.5684C329.966 27.6095 323.556 24.6017 317.833 24.5308C312.109 24.4598 306.491 26.4177 300.768 26.5454C291.616 26.7441 282.938 22.2749 273.838 21.1824C264.739 20.09 253.569 24.4173 252.118 34.1501C251.432 38.6902 252.923 43.9823 250.18 47.5009C248.478 49.6858 245.682 50.381 243.295 51.6153C238.403 54.155 234.895 59.5321 234.341 65.335C231.163 62.8663 227.879 60.2557 226.099 56.496C224.318 52.7362 224.608 47.4867 227.8 45.0464C229.435 43.7978 231.532 43.4573 233.299 42.4358C237.757 39.8678 239.102 33.7954 239.985 28.4324C240.196 27.1271 240.407 25.7084 239.853 24.5166C239.247 23.2113 237.915 22.5303 236.675 21.9344C230.53 19.0259 224.397 16.1316 218.252 13.2231C212.304 10.4139 203.956 8.29989 200.475 14.202C199.354 16.1174 199.05 18.5719 197.613 20.2319C194.817 23.4241 189.45 21.906 186.232 24.6585C182.645 27.723 183.568 34.4339 180.047 37.5978C178.148 39.3145 175.457 39.5131 173.255 40.7191C169.866 42.5919 167.914 47.0752 168.771 51.0762C169.628 55.0772 173.202 58.2127 177.027 58.2978C180.416 58.3687 183.515 56.3115 186.838 55.5454C190.162 54.7792 194.553 56.1696 194.962 59.8017C195.345 63.2068 191.797 65.7322 188.606 65.8599C185.427 65.9734 182.328 64.6398 179.15 64.5263C169.708 64.2141 160.001 74.5003 152.023 69.0522C149.108 67.0659 147.143 63.2068 143.741 62.6535C137.819 61.6887 135.261 70.8257 129.959 73.8193C124.671 76.7987 116.02 74.1314 113.897 80.1329C113.396 81.5517 113.488 83.1123 113.33 84.6162C112.486 92.8026 104.797 97.896 97.7944 101.216C91.7939 104.068 85.5561 106.636 80.4656 111.077C75.3751 115.503 71.5375 122.342 72.3419 129.336C73.0145 135.281 76.9181 140.729 76.1796 146.66C72.2496 148.334 68.135 150.121 65.4183 153.597C62.7016 157.073 61.9235 162.791 64.9172 166.012C69.7703 171.247 78.1445 165.671 84.8176 167.388C85.2791 169.899 85.7275 172.411 86.1891 174.922C92.4269 175.418 98.678 175.915 104.916 176.412C105.259 178.71 105.588 181.023 105.931 183.321C110.877 176.738 121.018 181.278 128.39 178.284C132.267 176.709 135.103 173.12 138.65 170.807C142.198 168.495 147.578 167.97 149.86 171.687C142.659 179.859 133.612 186.116 123.722 189.776C117.655 192.018 111.101 193.394 106.024 197.622C100.946 201.85 98.0845 210.292 102.028 215.726C97.9658 215.485 93.8644 215.91 89.9213 217.017C89.4201 221.898 89.974 226.892 91.5038 231.517C98.5988 230.24 106.208 235.092 108.595 242.385C109.571 245.364 109.743 248.599 110.824 251.522C113.673 259.268 122.324 263 130.039 262.248C137.753 261.496 144.743 257.296 151.469 253.182" fill="#98D577"/>
<path d="M257.446 100.507C252.369 96.1368 247.278 91.7669 242.201 87.397C240.79 86.1769 239.247 84.9142 237.44 84.8291C235.95 84.7581 234.565 85.5243 233.154 86.0208C224.608 89.057 215.852 82.8002 207.029 80.9132C194.329 78.2033 181.682 84.6872 170.143 90.9866C167.175 92.604 163.826 94.8031 163.509 98.3642C159.131 96.3212 154.423 94.2356 149.715 95.101C145.007 95.9665 140.694 101.159 142.264 106.011C137.345 108.48 131.687 103.458 126.333 104.422C120.913 105.401 118.064 111.97 117.352 117.83C116.64 123.69 117.062 129.975 114.345 135.111L114.49 136.842C120.754 137.962 127.414 139.268 132.096 143.879C134.021 145.766 135.498 148.121 137.318 150.136C143.464 156.917 153.618 159.046 161.676 155.243C167.044 152.718 171.224 147.993 176.209 144.688C181.194 141.368 187.973 139.637 192.707 143.354C198.536 147.937 199.42 159.23 206.567 160.28C212.093 161.103 215.891 154.86 219.623 150.405C223.923 145.269 229.844 141.722 236.174 140.516C241.185 139.552 246.434 140.006 251.287 138.346C256.14 136.686 260.703 131.805 259.78 126.414C257.604 129.436 252.052 127.024 252.435 123.221C252.962 117.929 260.809 117.575 262.998 112.807C265.029 108.367 261.033 103.6 257.446 100.507Z" fill="#7FB239"/>
<path d="M401.088 83.467C398.463 80.6153 394.481 78.7567 393.491 74.8834C393.083 73.2943 393.267 71.5918 393.333 69.946C393.953 53.9138 380.475 38.8463 365.56 38.903C365.942 40.7616 366.311 42.6061 366.694 44.4647C360.021 42.5635 352.372 45.926 348.851 52.3105C336.929 48.2386 325.02 44.1667 313.099 40.0948C311.648 39.5982 310.026 39.1159 308.667 39.8394C307.098 40.6765 306.544 42.7479 305.674 44.3795C302.865 49.6574 296.429 50.7783 290.996 52.4666C285.562 54.155 279.509 58.8653 280.815 64.7816L279.14 69.8893C276.727 80.4734 284.89 92.306 295.005 92.9019C299.304 93.1573 303.498 91.6818 307.705 90.7879C314.14 89.4259 320.8 89.3692 327.249 90.6319C328.344 90.8447 329.517 91.1426 330.256 92.0507C333.118 95.5125 326.128 100.563 327.79 104.848C328.449 106.536 330.23 107.317 331.852 107.87C342.23 111.36 353.374 112.197 364.096 110.268C368.118 109.544 372.391 108.239 374.936 104.806C377.323 101.585 377.903 96.832 381.016 94.4342C386.317 90.3623 394.309 96.1935 400.059 92.9019C403.791 92.7317 403.712 86.3188 401.088 83.467Z" fill="#7FB239"/>
<path d="M297.286 204.12C295.427 199.878 292.13 196.587 288.727 193.664C279.694 185.889 267.798 179.646 256.839 183.633C253.45 184.867 250.364 187.01 246.896 187.932C234.948 191.068 223.659 178.909 211.381 179.547C199.947 180.143 190.887 191.621 179.453 192.16C173.954 192.415 168.652 190.074 163.18 189.521C157.68 188.968 151.139 191.096 149.464 196.728C148.33 200.545 149.754 205.071 147.868 208.533C146.431 211.186 143.49 212.392 141.38 214.477C135.894 219.883 137.252 229.375 139.046 237.15L139.441 235.334C141.855 233.532 143.464 238.356 145.191 240.909C146.985 243.577 150.691 244.017 153.539 242.796C156.388 241.576 158.564 239.079 160.634 236.653C165.026 231.503 169.523 226.126 175.457 223.288C181.392 220.436 189.212 220.848 193.432 226.154C196.65 230.198 198.285 237.064 203.231 237.306C208.994 237.589 210.497 228.892 214.256 224.182C218.45 218.918 225.848 218.805 232.297 219.103C236.266 219.287 240.355 219.5 243.981 221.231C247.371 222.848 250.127 225.672 253.384 227.573C256.642 229.474 260.941 230.297 263.882 227.871C261.429 225.019 260.084 221.103 260.215 217.216C266.018 218.464 271.808 219.699 277.61 220.947C284.27 222.38 292.46 223.246 296.614 217.471C299.278 213.768 299.146 208.363 297.286 204.12Z" fill="#7FB239"/>
<path d="M449.091 156.889C442.972 160.393 435.231 158.492 429.441 154.392C423.652 150.306 419.287 144.333 414.513 138.927C412.627 136.785 410.556 134.657 407.932 133.777C404.068 132.486 399.967 134.203 395.958 134.713C382.875 136.388 368.791 125.449 357.264 132.33C351.488 135.778 346.741 143.482 340.305 141.893C337.509 141.197 335.373 138.8 332.788 137.466C328.528 135.267 323.464 136.132 318.967 137.679C310.144 140.715 302.073 146.234 295.796 153.555L297.26 156.407C294.741 156.577 292.38 158.336 291.352 160.819C298.091 161.472 303.419 169.232 302.034 176.355C301.599 178.611 300.596 180.767 300.662 183.066C300.821 188.968 307.204 191.82 312.268 194.061C319.165 197.112 325.521 201.595 330.889 207.171C332.089 208.419 333.289 209.81 333.711 211.569C334.713 215.797 330.81 219.741 330.968 224.097C331.139 228.906 336.362 231.929 340.806 231.375C345.25 230.836 349.062 227.899 352.899 225.416C358.768 221.614 365.138 218.677 371.745 216.719C372.892 216.379 374.119 216.066 375.253 216.45C376.36 216.804 377.218 217.769 378.273 218.266C381.438 219.784 384.801 216.96 387.517 214.662C390.234 212.349 394.546 210.533 396.788 213.385C393.597 223.927 403.448 236.242 413.616 234.383C411.651 230.084 415.686 225.459 419.511 223.004C423.335 220.55 427.991 217.499 427.832 212.704C427.661 207.454 422.003 204.957 418.113 201.779C412.561 197.268 409.752 189.166 411.203 181.845C411.48 180.455 411.941 179.022 412.943 178.086C414.513 176.653 416.821 176.88 418.865 177.135C427.476 178.199 436.207 178.114 444.805 176.894C446.889 176.596 449.052 176.184 450.7 174.794C455.514 170.722 452.467 162.436 449.091 156.889Z" fill="#7FB239"/>
</g>
<defs>
<clipPath id="clip0">
<rect width="422" height="454" fill="white" transform="translate(63)"/>
</clipPath>
</defs>
</svg>
